<?xml version="1.0" standalone="no"?>
<!DOCTYPE svg PUBLIC "-//W3C//DTD SVG 20010904//EN"
 "http://www.w3.org/TR/2001/REC-SVG-20010904/DTD/svg10.dtd">
<svg version="1.0" xmlns="http://www.w3.org/2000/svg"
 width="6912.000000pt" height="3456.000000pt" viewBox="0 0 6912.000000 3456.000000"
 preserveAspectRatio="xMidYMid meet">

<g transform="translate(0.000000,3456.000000) scale(0.100000,-0.100000)"
fill="#000000" stroke="none">
<path d="M28813 21013 c-3799 -3836 -6961 -7031 -7025 -7098 l-118 -123 59
-174 c326 -964 853 -1989 1456 -2833 389 -543 758 -979 1234 -1456 1260 -1259
2798 -2198 4491 -2741 917 -294 1809 -458 2830 -520 250 -15 898 -14 1185 1
1578 85 3038 470 4445 1172 1346 672 2559 1627 3551 2799 774 914 1395 1947
1846 3070 812 2022 1012 4269 572 6430 -328 1609 -1014 3135 -2003 4455 -341
455 -632 791 -1056 1216 -876 879 -1827 1564 -2940 2118 -489 243 -908 418
-1428 595 l-191 65 -6908 -6976z"/>
</g>
</svg>
